<mxfile host="app.diagrams.net" modified="2022-09-12T20:33:07.205Z" agent="5.0 (Windows NT 10.0; Win64; x64) AppleWebKit/537.36 (KHTML, like Gecko) Chrome/105.0.0.0 Safari/537.36" etag="UCXcc8E9yFQwNt7yBPJs" version="20.3.0" type="github">
  <diagram id="4iYkb6BuXI2p21UYMh4D" name="Page-1">
    <mxGraphModel dx="1038" dy="1647" grid="1" gridSize="10" guides="1" tooltips="1" connect="1" arrows="1" fold="1" page="1" pageScale="1" pageWidth="850" pageHeight="1100" math="0" shadow="0">
      <root>
        <mxCell id="0" />
        <mxCell id="1" parent="0" />
        <mxCell id="BQ2twlo6tOlxEzceBM2V-1" value="" style="shape=mxgraph.cisco.people.androgenous_person;html=1;pointerEvents=1;dashed=0;fillColor=#036897;strokeColor=#ffffff;strokeWidth=2;verticalLabelPosition=bottom;verticalAlign=top;align=center;outlineConnect=0;" parent="1" vertex="1">
          <mxGeometry x="30" y="80" width="69" height="82" as="geometry" />
        </mxCell>
        <mxCell id="BQ2twlo6tOlxEzceBM2V-5" value="" style="endArrow=classic;html=1;rounded=0;" parent="1" edge="1">
          <mxGeometry width="50" height="50" relative="1" as="geometry">
            <mxPoint x="99" y="140" as="sourcePoint" />
            <mxPoint x="179" y="140" as="targetPoint" />
            <Array as="points" />
          </mxGeometry>
        </mxCell>
        <mxCell id="BQ2twlo6tOlxEzceBM2V-7" value="&lt;a style=&quot;color: rgb(0, 0, 0); font-family: &amp;quot;Times New Roman&amp;quot;; font-size: medium; font-style: normal; font-variant-ligatures: normal; font-variant-caps: normal; font-weight: 400; letter-spacing: normal; orphans: 2; text-align: start; text-indent: 0px; text-transform: none; widows: 2; word-spacing: 0px; -webkit-text-stroke-width: 0px; text-decoration-thickness: initial; text-decoration-style: initial; text-decoration-color: initial;&quot; data-slideid=&quot;&quot; data-shapeids=&quot;4&quot; data-sessionid=&quot;fb72ea1e-c022-4425-90b2-89224e7e693f&quot; class=&quot;CID36845ced-c3d6-4f36-92a3-79b5cb3a8311&quot;&gt;&amp;nbsp;&lt;/a&gt;&lt;img style=&quot;color: rgb(0, 0, 0); font-family: &amp;quot;Times New Roman&amp;quot;; font-size: medium; font-style: normal; font-variant-ligatures: normal; font-variant-caps: normal; font-weight: 400; letter-spacing: normal; orphans: 2; text-align: start; text-indent: 0px; text-transform: none; widows: 2; word-spacing: 0px; -webkit-text-stroke-width: 0px; text-decoration-thickness: initial; text-decoration-style: initial; text-decoration-color: initial;&quot; class=&quot;CID36845ced-c3d6-4f36-92a3-79b5cb3a8311&quot; data-from-ppt-online=&quot;true&quot; data-image-height-mu=&quot;5.99502487562189&quot; data-image-width-mu=&quot;5.99502487562189&quot; src=&quot;data:image/png;base64, iVBORw0KGgoAAAANSUhEUgAAAPEAAADxCAYAAAAay1EJAAAAAXNSR0IArs4c6QAAAARnQU1BAACxjwv8YQUAAAAJcEhZcwAADsMAAA7DAcdvqGQAAGfBSURBVHhe7b0JvCfXVd+pfq9fd0vdltBiteXIkq3IMliQAN6RjYUxkGCDJ0PsELaZBAzGKwNZ2DLYw2bACWYLhiEQAkMytoEJaEJgZkCOJQJYDsHGzWYLhIUbWVjCi2T1Pr/v/d9z+/6r7nLqvXr/fi293+dz3r+W88791Tn33Hur6lbV+nOf+9y9d9111+kLylh7ylOesvexj33s+tGjR8/EbSNg4+DBg3tvvvnmC44cOVLUe/GLX7yun41rrrlmrWFrj8rbuPTSS/e+/OUvP/O2t72taevJT37yngb3YCtyZ71oy8P9277t29buvffeHvcLjLvHDx7u2FK52Gly79ha0/4u903EsMt9hhjOVv+cMUzc54qht/61bHnrXwmBBMLyYtMYkBCBffHAioAEOj1b7O/ZYh86lBs3lZBzX1tsGsO4t2x5uXv8YNyjrRoCd/QoO24bwcNdIAlWGUMX950aQ+PuiaGHO3qrimEJnn/cYyQmHHTX1gzBT9zPnDmzJe7CJD/Myb1ha4/ZmpN7y9aAe9UWZXX8MJn7HDH0cDdbq4qhl7vZ0nKVe/xdQmq1Wg5kv4PEXMF3t1rGfQYHBu49B3r8MAh+01aHu6vXFHZjuMCkGLa4D2JYw5zcky0tN7nH5YTzOQk8LeDkJNDyKrivPAk83IXZkmBO7mbrkRBDTyMc1wN2k2CBSQ7s+GE3CYTtiKGX+yNpJBJIdA56WxzYOmghd2ANydaquJutDvdgK3Lfkh/g7OA+ewzRXWUM5+TeseWN4WwJ7Iyhh3vyQ16e+yICOh0S6+ig2ws+0nOg2dJyzZb7IgI6PQdaeR4/7ETuyIpi6OIuCbZieavwwyOz/hkJLRZJYND+UatVEhg1ElotkhjYqjqQg+3ZsvI6tiZxj3oe7lVbc3I3W1qmvE3bmpM7tnrlgXMVwx73zNaO4x71PNyXbbX+UQj/SNet5epBQwKd1kFb8Hu2cCA6/MZNI1h5E7h3bc3JPdoqYpAENe5pyKTFOf2wEu6PhBg6uM8WQw/3qgOzf6ySGBx00RZEPQ60g245cM7gG/etOhB4gj+VeysJPNyFzXDfMTHMyltJDOfkbrZWFcMSVp4Eu9jFNmEzDVkR1pDF+l6z5UrgORuy0j9DYv3ee+9du/HGG0+95S1vORW3LwGC73nPe9YvvPDCM+985ztPalNpTick9n784x/fc+TIEXSYG/o3JN8hebwk/M+ePQsaJDw/UZa4eXTAQM/moi7pTbEVdQC2ijpgG7jPaWvT3AF655g7WNLr2CIR/0TyRsm7SQLVP+pxsy4/+tGPPv22t70NHWwtgaS75ZZb1gd1eQQSmNyJttAbAVvKq7293LE87HGPi2cxpRVBV6tLzs0QWpFCq/VlkvslwfEKRhLbNhSPDuLR8+ggU3Raeh4dxKPn0UE8eh4dZIpOS8+jg3j0PDqSB9bW1r5ev8DbAxfrMg1FpS4vYc7c8dgy7rmR1Gt6euBWSyMEWyyopcFO3mq9TPI9kosVhF/Q7wnJaTkKx48gHTjiOFSKrR+QGjroemxVdYDUcBz70QvbhvCUJ1Dk3NznsHU+czdbJR1sXyL5bKntl3zb6dOnvzPsKYBE6fWaAkPokEiNXjPZmjB6pd6XkPJQ+idf97rXFf2V5yEOCZhCwpPADRJfI/leOfji/fv3X3vppZf+1dGjR4vlCXsOHz68rkDsEbeqA6+66qr1kydPru3du/d0zdbVV1+9duzYsXW1zmfuuecedIq2VN5eyhO3U3fffXfRgQNbVT9k3CmvaGsKd5Zn9kOXe8sPVt4EP2w3dxLjyapbt+j3Wv1+k8p9fdgzgLMuz5bA3iG05c7kPISEt+tWIa4TcUjHbUN8jZz7YcmZgwcPXhm3lRCGFAjLi01jwIsyW9zhgk7PFvvRa3BPtlrlCbNxV2czyZaHe7RVQyivZ8vDXVg19wv27dv3Sapbfyqh4fnni63LoDzqaM8PlIdoucoLGz1bcHfkzqQ8XCrP849eEuzv2VIr+jJLYq1evtg6wo52YLRVg6chc3EXQsWdg7vTDy7u5ocO95XHEGxsbNyounWnFotJPIV7zw8e7sJsMRzUv7O2ev9oDoxEuyRaBw2UxC8nibVYS+IUfHqhuG0Ez0ELkxK4xX3ghxoS95YtC0aHe54EW/KDN4aU1fPDVO5zxbDHnf2UpZ74E7VaTGLjHm3VcM5i2CpvEMNldEjkB10jEYj2SFjhJLF+akmckq5hKwzR0PNw7zgwcW/ZsoB5/NDhPqnizsFdmDWGma0aXDGcwt3rh7h+g2SUxIMY1jBn/ZsthgPuNVtFTHJgK/hGIq5yYauUxGnYsZOSwOlAlx+Me7RVQ+Le6MVc3IXZYjiV+zlMglESPxxi2OFexHYlASgl8Y52oNcPD5MkGGEQw1n84OW+iRjmSfyNbJibe7RVw5wxdNW/+LuESQ5sHbQwTGAwSmKz1Shv1uCbrQnct+QHS4IO92Crw32SH9DdphgOMTv3jq1WDPMk/iY2RO6riOGc9S/FUMtN7nE5IVzq5x97wUd6wTdbWs5t5Un8aPZ3bIWDRqfnQCuv58AtcM/hGf5P4o54uHdseWLo4i4JtmJ5q/DDHPXPkvjM2traN4ctq+EebPW4m61GeWBSDOP64uqX/aNWi/+IQSOh1SoJDrZhKyQxt5guuuiix0SdrgO1XHWgcY96Hu5VWx3uAYPyqtzNlparSeCxNSd3bPXKA3P6wcN9xvp3A7eYqF9K4tATl7Ad3KOeh/v8MYRE1nUXYf+InlabwUeH37hpiDTZgySO20oIBx3LazqwN+yYyt3jh+jAYnlgCveWLQv+Krk7YujiLri4zxlDbjGpbjUne2DLwX3WGHq4bzqGg38skoCoh4QddIvEYLLHFYutI7gS2LivyoFTK24rCTzchc1w3/YYev2QlbeSGILeZI/zJIZFWAxjeWdt9Uh4HegJPlASfy1JrMXhLSbDbhIsMFsSnAvuZmuVMaSuqid+slaLSVxNgmVsF/eurej36TGcQKLpQA8JfjuTPVJFajnQW5FW4sAMxj3aKsLL3WxpeWVJ4OGOLS/3Vgw3wb1rK64+STJK4vM5hp6OtOnAaNwb/KItc2Bc5VHEYhJ7gm8ObJUn5A7cEndzoNcPkXvVD+hEW13uLT94uAuzcvfY8nD3xnAK92gLjCZ7eGM4J3ePrQH3LfmhhEkHHUkUMai4oDhja8pBZ7ZKCNzRo+y4bQQPd8HT80wKfseWi/sg+DVsVwyrfjDunhh6uKO3iRiOkjjzw5ZiaNyjrRq2K4ZV7iVsxYFDlJJglMSbcOCOS4IW9/MsCYZwcff4wbhHWzVsNYajyR5zcHfGMHH3+KHjd3f9i4sJW3VgjpxEftBLSWy2ZnDgtiSBlreUBF7uZsvDPdqqYc4Yno8jkXyyx7eELTswhq3yBJcfrLy4GpD+cS4S8aCHJFISHzx48DA6q3ZgtFXDJAd2/LA7HBe8MTTunhg2ygtJzC1MJbHN2CrCw12YLYbGPdqqYfMxNBJzBp8LCnFbjqUZW63yhEkJ3LJlFcnL3eOHVsCEPAm2FPwB924SzMm9EsMAD3fBxd1sebhHWzUwY4vJHiRxeACiBKcfJiVwi/sghjVsuv6Ff+yRMKIdEinpGra8r+cJRDsOTNxbwbCDjtxrtlLAPH7oBX/F3FcdQxd3YVIMW9wHfqgiTvZozdhyXTkWzp8YzuhAVxKodfS8nudhkQSNXszFXZgtCaZyb9jasUnAn96Mral+mCuGPe5ma1Mx7JHwOtBDAjDZgyTWYi2J13o2drGLGvbt2/dE/bxXQhL/M7ZNxJwN2WyN8CAPl7CHf6y921bgH92vqH3Pe95zIvawI1A4NpTEXxtfI3qxhLnTH2J/BBPTN973vvddffLkyU88depUkde6oB+cclo6vNaz5KA9Ue9M1IHXSM9jSyo4FzFbRWS2UIN7y9ZKuAtDW0VktlDrcccW9aFVHmjZ2g7ux6V2tX551zQP1/yk5KclF0kl544t+P+O5CMSAwkcXit7xx13nKzUZRI4fJlBiVV9L7QQbMXcobyiLcudli0SmFfU1l5jW3KcgUei1g4dOnSmQYIhdAjYC1/4wlONA8rxVZI3SHjJd57E9MAXvOENb7jiwQcf/EYNY9Cj3CWOcmxcEqHqe8/P6nl0QE1vanlgJ9p6BHGnPh5iQTgueVA6SSnqUK+Q10j+T4mn3s6NkMAsNHIH3uThnuuuu+507T3UZz2Qgcy/8847mwlMD863aTLj2PoECd9aOhDXL9i7dy9OXVPPCsmPS75Y8irJQUlIYrMV34r/NyU/JXmO5JjkIQlxMK6KQzOoXb2Jtjw6oKrn0QE73JZHB1T1PDpgi7ZYscq+LrXQ+w50SHK2v0Xy/ZJTsZ7uUT2tvdh9WJeLCSXwAnz0zkivlDsPXnzxxUc//OEP3y9uxXIi6J3XyEPlhR3TSJ/cMUckWNfdGgYMko6bzS+UPFdyvYTz3P0SHB1+ogP5w8FzRfoqCQd6hfbdp2HCRvZpCz60xhDoJskPS35ZQ6GL9IvT98Sh0IgTyIZMDNGKrat0IBWcHG2VwDBuSnlVW7G8Kba2yh09dNBt2epyF6b6YadzR1h+k+Rayb2qox+I2/N6uoSz7UVdB3j0pEOndJ/kTuncqt//KBmdqnrzkK9KxNUF7GS9dPJs4B/VvXOiDp4n+XnJ+yUUkkRkex+8CreYsBXtmQdI4v8ieVDyP7FhF7uYGf9d4v0w2ySdll5B588l5M9nSRIsD0nkuGkE8hAdcic1HfwjJ+uti1iW+UeOHOFcgyHxqyX0voAW7Zcl715bW+Orh1wYGLam/B+99ldonzrfCx/7tKc97d5BS0MS/zvJ0ySvkPwkZFufk5wyeuAigufTlHN+V6f3aUq4t2xN5e6JYY+7bG3n521HGMSwyh0/sKzy4FSy5eH+LtW/T9Hvr+j3Z06fPs1pWwl7VJfDyEA6teMLowf1qmuxvhd9JRV6Z0aol8vWJ+v3CySMSAGfYf0ByY9sMoYLB3p6YHTiKhcE/krCQTE8YI4qz3Feig66Wq7hpTrY1ut5rCf+uBz40rBlMQwrYsA9NUo54EOLFflXuWHD64fB6GGIdAtCy13uLVsKPEnQ5e6NIba83LEZt43g4S5shvu2x1B1jySmR+R8uKoH8H9crMKrE/Uoj2tH5At5Q/6QR/eqvpNX4Rj4LaFY/6Y4MK5+jsSGz/dIGApwISsQxU4r+CLaez1PSGLtz5O4CE9FgtMmKlIRUxO45QcPd2FHJoHXD1l5K2nIPNyB6ta7Y/3jI+Ql3RBDyuRY47YR4I5Op7xki+XFpgTyhlPSe+Ajeb967OeHPQVYDKOts7x6B20BixUSJ3IyjgMekHAFOQAbmV4VSszeZI/Ha//bJSTxP47bRrDyOg709Dwu7lMrbi/4Du7BViyvW3Fn4L4tT4G1/GDcO7Zc3L1+4Fd16936qSXxdsWwyl2J+1nUdwmcfp1NYUeGZgx7DsxIgC+X2DD6n0hCYR4H2j6SWD/VJN6/f//1OpjbOCit/qPF1mVswoHnbRJoecckgXGPtmqYMwlmbYQz3rUkTtw9fuhwd9U/bF199dUXKi94WANO5NeXsc/grX8l5CTsH98qoSCuqoWHFyoORD8J+66//vpw20n4Wkk1iZk2pwR+uxaLSTynA417y5bXgRU/LMG4R1s1uJLAw114xIxEWraMe6bzLgn1j4tJdjzhNbbU06gXtg2FfehkfihJKA+96NN8X4Jxj74in+w0lfvXhm4MixsFHBgOOLsKeFjynySfLmHG1b8QwRODK4pM4HiqBN1w5VBDBc5pIMkVPk7i/67kKyQXStKMLQ7o1ltvPXXgwIHrjh07xmQPrk7Ta7McgEOyq6HcUy4hcO9NZaO83lVAAQeGit24+ppszXlFu8Xd/NDhXorhCB4/OLmHkQjcPVe0Pdy3IYZWZ0hirk7fIvlZyal49Zh6ekb1tFieRweoVw31XeBqde4rtnMd6Q4d10MDP5AP3yH5esk7JeTJvfhUv836VwIODJnPBYW4DTxD8scSDP190yEo7Iz4Ign7k+hA8vtiQwk9McGgRWJZSFenJaknppxBa1pC4u7pCQbch0i2WF5sGsO4t2wNeoKqLcpCb07ugxguwcNdcHE3Wx7u0VYNc8aw1otZTxzE6mijnrp0EI+ecvwlBe4c64sl6JBnz5SEOqGfpt/jYkIaMhUc+LmSP5Oc2bt372fyzwMSFPZKCSS47/YXOpA/k9ylZRP+n56XVhq98C2mwQGNktgCFgnXDigFrBX8QnklJD9ouVZeqGw9W07uyZaHe7RVQyuGBhd3IXD3+mFV3M3WFmJoSfwR1c8/p44O6umS2P6WDtLQo97/heSY9pHEr7n22mvDHZ0BmKUIr7vU638+GxqNcPJ7XA/oJQFGOWCS+KaCcZzF8BcSvy8SL9rY2PjbWv7UTD5J8u2Sj0nCfWLKGwRjlMRZ8FdakTwOfIQmgcHlB/Zl3Gfxg5d7JYYhiVWX/73q8jNUTz9N63k9zeUp0nmqdDiNLO2njn8aOlGvZOtGyQtU3u/HJKazw69DPF0Crz9X/jAZpIZiDD0O/HyMQ0JknxW35UhJLJ3f2b9//3Vh6xjc+229nidPYp5kCoHTz24SOPzQ4T5XEgAXd2EnjkRssscbO7ZCT9jwQUJPR/nwBJX325SrVfKklMTPjLy4cPyCxaYxSjFMDuwQeSHGIwnOj4eA1CsiCZKYp5FKSK/nOXTo0KPjthwpidVi2WSPLQXfkqBXcbGFtPxgDmyVJ4SKFCvILNw7lS3Y8nLv+QGdji0Xd2G2BPbG0ME9n7FVm+wBZosh2Ldv35NU3ju0WE1idY43RV4kcRhOD1GKIRU3HIQ2Vh+C5o+690BSzuGnBOVcmGcacOzYsaIiSnHxgo997GPVK3ziQrm2v2RriXvteUwOmse5WldMBWwF7p2HwfeKc7j6WrtiKjCLJ1x15Gq71jfNXRIeCaW8ty3mhJeQbPFcqod7ww+Je8sPDu4gPI8er75uyQ9TYtjjnv826vKcMQw6wmmVVyuQFwyk3Kmo1WMoIrQItVYk/GNc5sEFWghKWOqJVeieq6666iLlJw9EsJ83JiwNp9HhVzq0Qq3JHtcpAM3JHrR68O5xxzFRBwdZAJcwsFXUgTt+yGwVYeVFn1VtZeVVW++Me9WW1w8e7marxz2z1eXesrUd3KNek3tcrc7YmjGGef0DjEzJC8pNPbFxR1erXJFm/1JP7Kl/TQfSdcf1cGFLQiEpiY0Es060ylNH7F9KYjvouNqb7MErR2/TYjGJnQ5Mww4tNisSOi1bVl601UxgdGYIvsuWh7uQx7CZBJmtJveeLa8fHNzzGFLelmMYdYBdnV5K4jljaNyjLUA+LCXxwA+AvGJ/nsTdGEKiOBzSP4bHueJjdEXgQHXre3kDyN133128GQ3Rpz71qeHGfdxULA8HoitUhx1mi+V487tqyyZfaLXIy7hnExiKw6Gbb745fwSw6AtsZTfui8Ov3A8qD50q98EkgM1yH8awyn1gq8m95QcPd7Pl4J4m0GgV2XIMo9+LGMSw64doqxpD4x5tjaCkHPqhCE8MS0iZD5m4DSz1xBzQoBXhlxaG/aknZn9sRazVGn2LiXKiDniCZDTZAycXbI1Q4b4EbGXciy2uMKnnadmayp3fuGkEL3ePHzzchdwPVe5mq8cdW+eIe25rqScecN+uGKaeWKeUr+T0s1Be3hOHq9MF7kuA+4iMDKdWRK1cMfP37t27RuvWaUUCudh6V1stnGMtYNzEQSwBnakPxde4Y6vX8whUJCuv2gLiQLi3bNHYebhjy7jXWm/zg4d7L4Ye7gJJkPfAVe5ZL1b1u/lB5aFTKi/Vv14MJ3LHTtHW9ddfn/wQuW86hnn9q8VQI01+Qt5FnaIf7EJyNhIZwfy+lMSeJDASV155ZcuBnNuG4XHLgQcPHly3SlkLPpjLgVMS2JJA60Ve3iQYDEPP5yRocl9VEkyJIeW1Yqi6vPbAAw8Ev88Rwx73mDvgzNGjR4s6IOqFP54Yxk0LB9J1QyZuGiKf7PEZcVsOhjVhOC2dd3BfLGwdI/8W01WF8vLJHl/JBoYx+kkeKIGDiotVeHSocHPaQuJqFau2tcv9gt+j/kl+gHoftxVBeb3658gd7rr8TZX3O5Sr1XR1eoBnRF5pOF0C5eRD9kCMFet5apkvMG3sR/X7ODmIS+G/HbaeBaR49c6P6PcOJfEXHzt27H1hzzKY7PG9+r2YGVtqCXmqIwdJHN6xxS2r06dP/+9aJnDDFvATJf+rbPEIVzgO8Sq1pEstW00HePSm2vLo8Kemdy6582cuWx4d/tT0ZuR+WjrMOOS1te+XCu+3qpVJnb5NOj+k378MGwew3Gn1wIBO7cSJEz8rWzzlx10c6vXSk3h0jqdOnbpdi/B6mX55anAJJHA2aluU52lFgMboX6iDGt1iyrChpHuVdGhJlm4x5ZBO71tMoSfWfmZshWmXFXyvdI5jJ9oqiu1v6SAePY8O4tHz6CBTdFp6Hh3Eo+fRQabotPQ8OohHz6ODZHq83JFHZ0ew3LEesYIwcogj0+qMLXp8JfGzI6/8FlOC9cDDkUG4wtw7B2E2ChOy1UrQyz5OMuqJuU/8gQ984KVqQX5AAlleEs+HrZagxHy59n+3pPQZF8DreX5Gv0/V7yvUE/MpjhG078f0w3B7TbaGvXmC9MKvdMJvDR69c2XrfOYOtmprG8qjzrBQG3WSvMx7+IRoi+m/P8GCodgjjhGuK+h8mx6Xt8L+nMTe4pp6YmsEbr/99qefPHky9MSSpZ6YPKxeC+j0wOF2RlxmjF7sibERZ2zxGlv2j3piK4ck1s+WXs8DtP/HJQSBd33tYhezgpGnfqijyNKI0HrETu6E21ux1wSjyR6S1JvHRqU02SMkMDox2RctVYbRhgwQtSuYtBgY5c35eU8cWhr9XvDhD3947b3vfS89I731Uk/MwdJqHVm8r5oLW+GcWLL0LSYdyBmSWOcOP6lFzh042PRmD8CB0PKRxNKhPN4WwhtFcuy5+OKLL33ooYceffz4cc6li1cUNcQxp5yWXrFVlg7DIYJ1Jurg5BEyW6dimSNIBzvh/L5WnrAn2gItW13uwloscw7uuR+qPY+Tu9sPGxsb9z3wwAP3aj3nzvuasf1B6p9dhVZPRT3gdbCcv1LXAg4dOnSF6tTFl1122V8ePXqUjxKUkF+N539JYr7OAFJPTP1znAOTdKHXzOZxk8T/QZJ6Ytk6M7gWRRL/liTviUMexvKqMSyhNKFgabIHG9iPHi2FVtEl6difemJrtWIrAkaTPYTQatEaMXda66PJHgAb2IqrNCgc1KgnPnz48EH1+F8v5zHMJqBHh6J9SbTOi+9HOsgUnZaeRwfx6Hl0kCk6LT2PDuLR8+gg2v+XEj6zwqugHiUx8K2vX5Pcal8QifWPT/3QOfB1h78jMVwkG98n4W0ZNy82jRDqX1aXwagntvqX1eUSUu5ktkDeE7+C0090Br35qCc2W1q0PByiuD2RIKniNpAn8TMLQ4piEmcHbbZGSWwOZFnIbzGlJC44sJTE4WkQWl4FjReDUwajCFrWJNqXZLgvlyk6LT2PDuLR8+ggHj2PDjJFp6Xn0UEyPeLHS+P4XKmBnuwPtO+v1eA/IUsUvrL5nyW8LZKeLkC94dXSfbMWsfUPw8ZllBIY5EkcHokd1L8SagkMUhKrg3k1HU1BJ09iHjjq3V4N3Ic7S8MAQxpOcxXtpptu+u2bb775dPYIFoVxsDac/lI1Au9lZtdgGJAPp3k9z18zpFDy2eNc6RaTJAynSUyG44NbYHChPBtOcz8vNChx+M8tKDjTOFjZfJYDx7Hee9cZvkEn90EOl62oM4etydwlvNAtbBzgXPrhVKM8sxUUpEes3y5hiGlA5yWqmw896UlP+pU49AX839+S8CYNhsH3k1BxP6d/XFiiB/+gxJCG0Fn9M6ThtMp7mbj8GPWwcQs22GKh8igkSfwftP1pkq+77rrr3qTTz+HnY9JwWufkrzx16tQv0ZEWbIHEPa4HpHmtgx7YEHpiDCqJeRfQEHlPnE/2GNpKPbG9nmfQIuU9cXh5fKUFLPXEu9jFXEg9MUkcttSR5lVXcgekyR6yV3s9T+iJpcPreUJPXMHS6CEUyALT4lrfIxaYsRV6YhHlZnneOoLQE0snTPbY2Nj4kuPHj3MjfYg02UM9/lUPPvgg5615eflkj1epBeSCAj0srWSuB5evki0ehP+ftbwmXXRGzbzshB9EKtgotqbSwx/o8Xrdoh8GtorlgWhrPZY35B4QbXFslLdV7vyYrVm4S+zVrJviDsyWVLx+2Anc6SF5ywYfSOCWFR3Pj7M8hOUOyxoBwr3IS53aE0+cOPFzstWa7PFM9b7/VYvVyR40EoxueTmAlRemGFbvP2WgZdDx/msZKd4nFpjs8TXaz+yWd+iX84/RjC3pvEz7vkeLF+uX2VZcecwRklgOZNhhM7YIzJDXj2o/w2kceJ9ssY0/6CZIJy4FB4QfyZIO8Oht0tamywOmN6G88CNZ0tsk9/Aj2ZKt85A7vSEfO2BWF3rp6nSOQe7UEhjbZxiZqlPjHdetJL5JScwMsdF9YqDtYR43y0vl0SXTNWtxeCAB/CO/8b7Z0tXpHLztXgn6Gh08+9OFrSGk87XSqd4nFlzfYtL+N0hOSLBD41MU7Q9S2mdiOi09jw7i0fPoIFN0WnoeHcSj59FBPHoeHWSKTkvPo4NEHXvVEW9mHV0QI4F7uSOExypjDj1RYlenOe1Mw2lsoRdPU9mfrk4bsGFDaK2GoYQh7Gj0wOHkWftpMRij/2vJqCeGxJve9KYL77333q9Uz8mnMUYzttDhwoES8+XS+W5tKs7YYqK4Wqyf1uJTRDxc2Ao7BpCDX6+fb5AO587cUlg6MIEvxYchk1q36jBHjkvflj158iR6I0iHe9hhyCRTNV/R0NFKypTLFl+5x1YJk7hr0Wuryn2iH1zlCadka6dx78ZQdo6rjj5D8p3aRN2nM+Fj4AGDHrhmKz0NFy+uhQtbkqUZW4OLtuwLw2lJ6onFu/skVbUVyTIf5LeYUk8MCfRar+fhoNGJq5Cr9sScO8iJb9fi6D4xwBa/0mFIjoPvY30Xu5gZfLKXevoRyd9nA6D+eXtg9MiPuC3dYpKEnnhgC+S3mKwnrvbAhtASLhaXkJ7HVOYXWzZgrUjv9Tz2LKltir9LsGGHoJ/FycoQ1gKyLJViCy+UHDgC+zzB6DkQmC3K1WrRljVkPVvGPdoqwluRsvK25AfismruZuscxRBgb0kf7tTl7By4mjuDmVgj6PQzt0XuFCHu1gNjp1jnSwfFQYepZTowjBdJcECOCeAX2Im4SCydxOfAcZRHAh87dqxoCyfbECZuKjow515zILaMezxVqNpioTaEAXC34VD0w8gWvrLGJ/qhaIvKZsGv+dT84OFO8FsxNO4dW/AhSZrcLYYe7rHiNrnPFEMazq7fCzEswmKo8tAp2UrcsVXjrlPKdV5GcN111zVjGH+t/lVjOEzipeAPbn4ncA5y6623duePxl876BLREAw76LhpBGswvK0Wtmrc8+A3uCc/qDx4NSsutmoBswTOuBf9gC3j3qu42PJwb8XQ/N6LoWzlfq9y71VcZwzd3J0xDL14jGGTeyuGSrpQlx1+SG8TqdlSRxV+dO59pqYDtD+UybvE9dOsf3E1gIMOww6cFLflyCd7PJugLDYn0FqXJnsM9dJkj4MHDx6mTMiEPQuMpl1WhkzfJaEVC+fE2GhwD2BfZquG5IfCMSZYeQPuQ4QhdIH7Ejzc4ZJxr9lycTc/dLgHW7G8LfnByT1Nv/XE0MMdvS3E8HmSj0o+ohzmIi3YSgx5n7pN9uBpv1IdzCd7cDeoitwP6QC14m1FQD7dcoRMDxT10NG51hpDil5v3msBCdSqewJHL4atEFBPT9Djrn3d3ty4Y2uukYinJ+j15h7u2OrVP+OOLQ/3GWJoddk4bzqG+/fvP5s8iwktRVjunBLCQgHFGEKi12oJvJ6n9y2ml7Nf8g5uFS02j5C+xcRTKHFbjtQTq8UKE8+FpVYhIvXE8OfAwtYCOK6sxS3ZClDw3b1Yqzwh9AQIy4tNY5jf5+DuiaFxj7ZqSNxn8MOkkUirvIEfapiT+/NURz8qWbo6PYRx79jirovnW0yfQV5IRveJDcZ9yQ8ccM+BgO49Gq8l8T4l3asjidZkD+/reR6Sbuv1PN8lHSZ7MFurWkF2sUAx+LuoQvX9c1W3WkkcGgxHAnMPm2ejb9BycbKHwKhhXUkcPqim9WISW4MxjGF4PU9vCMM+HVTz9Ty82eOee+75KhHe6ut5OHdg7vRT9Nt6PQ+TPZjb+hHZuixsXAa2r5NjOOAzcRIADhoh6tAQNCcn6IeGDlvVoVy0BTy2qpMTBLPl5V6yxfaThw4der8q3P1s0PArtwUHvhnNs7hT/eDiLsHWZrgbePcUZc4dQ+ZH/5Fk+ABNODaSWHXv51W3KI/JHm9lZ4TrNpJAw7l+ZDHZg5Hpv5csTfaQhOE/t2lvv/32p4nXb2rbaNoleVg9Deq1IiR5XK69nifc04uv5+HpDPaPemJrPaTT+xYTkz1ar+chUCQxL8rjYEqTPfgKO2/C1KgglFOVhU5bz6ODbIet0j4Try35/BuHrXcEFYv57WGKYc+Wt7z5bZX3mWyiPJKO5GU6JUlrCEN2FpTEz9cPvfCwJ3bdwxbyi3lgNNlDkkbCaiuo16XJHsNRVKj/Objo0GxFyPy4jvEhQivCExWXXnrpSbVcxRYQErRaLNd0BKbFGcHYAI6hAzHHtT4VuV8BI5HVS4eengfFRyKdtE96o/2IRwfZLls1cdr6kPS4wrqm1juvrIYnS66RDn7/a8mO9MM2lEe9YfTB+9PNL9TlcNGMFY06qaejhKH+OXpgEjhczOPZ4rhtBJLSLsCJY60uD3vgkd6IZERK4Gz4RcsQHkWUhOE0rQgkVAjnprQS+UsBwnAaooOrgPlLAWw4He5HcsAHDhx4/LFjx5g7nV4KIAFpCBOHJ1zY+qcSKmk+nF7X+f2Z17/+9decOHHi6WozaPHyA2dZnVP4ljLLrYfU16WHj9AZOU/w2GI7D7Kj07NFeWE4hzRs4etaecBsrSsuD6hCMh/3L8KeZXyB9v+CfumJv1226JXzZLfyPNyhjl6POzqgx73nByuP5ZotkMcQJergv5RQj5nnzynZaeqffvMH+rnFxEsBWA7DaavLniG0JXC0BeiJbe70K6+++uqfPHz48Emu/mdX0OmJl96xRQ88yMMhxo0zvSbJCWGt5kke7hNLuE8cXs+DntbNCMt2n5hhQ7g6HXWsEoB0n1hyOb0vOlEPjO4TowOfzBZYuk8MBtx30YGGjC9SJaNS0xDSKz9SwHu4qH9vJEmy+pcnRLpPLD+9mA2D+jdCI3dAGE6T1GpUXs3pp9aHOmk4rTLDSwEqtgK4GE15S1kMCbru1ssBRIKfcCDx/mexCdS5bbgqJx32IyNbKmdt8HxkEejQAkZbRb0C9xEGDca4BYvAFsHtOdAqgFZrttL5k5arwTdbrfKMe8+Wh7s1ilpkovpi4+I6whIG3Dfth7m5Y6vj98S9Yiv8n+rynvvvv5/9zbqsMq2+V+sffnDmTsDRo0eLOiDqBY41W5Sn0UDgnpxgSdAce2ck4nCieNA4J/5go3pAGt2Eq3JyDuWVbIUCGbK35o+CjHuxPIJvj3O1AmZ+YMhU84M5MJvAUOSuCmTDf8orcs9tebi3/OCJodnig3hxQsFIB1D5beio1aKe1w/2feAWd0sCD3eWezE07jVbiyp6wZp6vBZ307P/r3LHD636V5js0SrPzslB0Q8Dv49awBryyR6cEw9By5gme3CVebF5hDTZg3dsxW058skedp+41HovTfaotLgBODnrCbytdxHYQif2BMXyBFcPbH5v2SJgHu6eGJofYnmAIRs+ZNj46WwQEndsxm0jeLgLm+G+7TFU3XtXrKc/qFXzxRD5ZI8wnC7B6QdGpjfIVm+yx7Mir+J9YlCqf+EVr4NerAi1WMFxqlThhz9DcKUhLtrLykeIFxkCHnzwwUUrUoAOJPyElUoLiA5Cr1JrAUkCexQy9gTN1jvrCUbAgYMWsOSH1ANnvdgI5veerUEPXOXeiyHczQ+xFyvCuGNLx1q15eGuimbcsdPkjq2txpDE7cUwItQr2cVOiTv1PW/AijreGNpvzJ0iOEb9hDJrehbDWF7yVQpGy4FxsWocXHvttRBokogwB4Yf/gyhxLQyi5UIZDo2tC/Zmj0JWM4dOMROTII8gRt+oJLtmbMho7xVNmQ97s66bDp5pzWClzsxpNzYqRWNYYtTDi1KtVxeHsNY/5IfwkFrI0Oq0n+nC0/ZGH0ESIgkB82928XGAdCJi80WSecOaUilc4e64sLJLVvBgSz0Wm+C4TkHZlm28FXRFkMcKlJmawT8gK2O3/MExk4xCYx7L4YO7sywWn/JS17i4h4rbpM7fpD+jnkemBhaXfbUGaE6D8HJPdlSf8P+Jnfe4X5SiJuX0Kt/TAIo/qMACUs8UDwgSNx5551884fbcMWAQQKiLKMUNlYgv5HANf/ljUFdKXOgnLzUauWAu6fXzCouvqr6wXqeXsXFVsfvwRZJoPUu94YtkqDXW4RTEn7e/OY3Txk9lLDEfYYnqUKsYwyrfvfGkIuocVPRlnFnOV70s145YQL3YCs+BVYEtox7zVdCPoQuxtDOYYcYJkER5kAeJ7zrrruaDoRE3FQNBgksdFtAlqVSO+ihA7eUBD0HArPVSuC5k8DB3ZUE2VmJvd1xBG9DZtzxwwwJPHsMGzrBlnGPm0Yw7h1brhhy+knn1+GOTy2G6BT9XkpilwMJrDmwVnHBIAmGCLaxxS+V6NixY8UKlzswbiod0MqTwJvAOzEJ4sXKMPLRSK6oI5zTkcgWYxhGIixU6l+AJ4bAuDdsJe6tGK6trYXTz86z9Kl17dW/uJgAiXALwhIrQz5j6zP4ZxwZ9izAJe98xhbfvgnnifrJhyX5jK3HX3LJJZc+6lGPupxfrfPGzE+W8CQHn6AMM7bgUrgFMZqxRVnoFbgnwBmdAfchkh9YXmwaAz49WxXuI5gtD/doq4ZWDBMY9SiJ/wc1nFSi/BZTjvyW1Ja4D/xQg4v7DDF8l4T690b1iAcqtvI3e7yEDb0YUlbDD/mMrddQ7mLzEvIZW1/ABuLEbwnm97gakAJWIRGSGBJK4mcXjOdJ3PoWE08xce+NsfNbJP8HonUeP2TO9C9K+CoEL+0O94mz4Oe2lpK448AA9mGnpSOE+6SdChIqEnotJwvBVqc8ly0n9xDYXuVGB1FF4RUwtSR23Q83v7fKZF8lhjmSrdYxYqNXnpC4V3waklj17geZ/lixNeX1PB7u+et5PN9iCklcQYjh0A8eEnyLyZKYbzENkZJYOiQxD0GX8CWS+7FjovWS8LXDr5PUWsCUxFZJCtw5QFqqfQRLQ69Dcc5q2FaQA+gcPnz4YGwpSzr7zVZ813ZJB0m2tMwnQUo6+9nfs8W+jHvTVoH7UgW14MfKXZrsAXpJAFwJLMyewNFWDYl7w5ZN9vghvlwStw0Rklg6qSeuwMWdyU+y9Y5Y34uTPYRnRl6MeHn0twjzg/kdp0Kiew4ivFDGwxcgFNjit5gkXy2dH9YvSfwPdX47+haT8DjpvFa/fHP2lGyFjRGsUFE/TbJXzvsnp0+ffpOW4bmkKJDE4SkmHdSVTPjIzmfQx8ZnS3jjCP+Lg+2DXUVIj/9Dj4vo+GFU6TIdPtiFrZEOkF5eHuVvytbCzKa5s85pyf8jeTdBH5xPk8SMfGgwnyv5bxKSIJwDcz5dqQ+pznTOI0ng/DxyGEPgqn8F7iV4uHPthZ74UyQ/qPr3Dfot2fts6f1f+pXKmeFLAQxeP4TX85w4ceJnZav7LSYtVj+oRgKPrgV4WhHA0EsHFc6JJXT7Q3hezzOqpAVcK/kN2WDa5VcuNhWRXs8T13PwmCMfdku9PcJ6TTx6Hh3Eo+fRQaboNPS+hx6HCmCtd0TeEz+FDdQF6oQqUS1WaSjXqTOhR0RXy1VbnvoHZ3QG3IcItjrcA+Snd0dfvVFS7NVV392v5+n4YfbX8wz9EF7Po421FpCA8ZHwk4zR1UrUXs+zR0O9Czuv5wm2HFcB89fz8N2m1reYaq/nYRhJ+f9IehxXbRIKG3lp/WJN6wU9NkglKZV0gNdWT8dgRdZ0PLbCTjWGP3Xddde99Uu/9EtPDOKc98SfpXrwu9z2qHwkG3hjmHrghq1w5bjTA8MfW+6r0C3uKocr7dxKe7d8xQVUe544t4sdXkfVfD2PyuuNHuBOQ7Z+pP16nsCde9iN1/N0/V5rRUKLS2sT19PVaUnqiWmF0Gt9i0l+yG21WtP0eh4tFl/Pgy1+pcOLBXB+qSfmPtwB4RotwoPefSjX7N+//wmS6+ObOXnwYqQjG9eyHz2tP2GwP+lltiivaEv7Hh91auUFwUbU2xJ3yeOVSI+N58jEOWV8ROiJ5cuPqRd4RuxRhjoB3hiqUreeqQ2gHHSirWr9M1taprxN2xpwB+nqtCT1xFl5gFOx0et5BrZq3Id+AMRyqSfGFjpZmenqtMR6YnfujMA/0ktr0f5xlMQ4EJ1IFF27Op2S2IgObI3AQaNLxdTq2yWjJDZbcZWeOFzYCmsZ7KDRj5sesYg+qCUn1zksiekhipgSw6w+FH1vtmIcq0lg9a9ly+pfx1ZIgsjddEZJPKjLIF2dloQk9nKv+GEpiY33wNYoiTPuVb8XiUDCum6tVk/W1a2HiwhxmEPhI0x5llSVqTrZAwfaRPi4qTSESdy5kY69uHkJg+AXK4iQB7/qQI+tQRJ4g1/EoCLVuKfgMx9aq/hq5AsNGfl/pDXZY7ueB0anGUPqX80W5Vn9a9gihsGWuMO7WJ7Zityr9d3qX5x8UeXe84NOb9Z4GUHnWfqAjHvV73HxLCz4kImbDKkn5hYTeoOKxHLeE4fX88SK6229QXqeWJImexSSYDTZw7hntkbAFjqdJHAlsHFv2Zozgc0PXu6FGCbAS0ncm+yxGe5FXpUYjmDce35Ap+eHrLyhH1JPzAW/iq3R63m2yD30xHQsXACOtwuHSD0x16DY0Iqh+X2JEIWT+bQipZNnIBL8rHFLp3HbIL2ep9WKQIJWK/bmRR1gj2DFnqDYauXcYws4AsEftN4l7qn1bo1Ecu4tW9Z6t7ibrVZPAHfzQ+wJin437q0YYqv36JtAEhh37DS5ZzEcGaQenIsYUl4rhqrLe/g6IeW16rL4h0TqxbDHPeZOwNGjR4s6IOqFP60Ymt/jpm4rAvLJHjfFbTloyUJPLJ18xlYRHHSlBcx7Yq4K1lrA1BNTSTLuua1dDEDw8RX+12ptsoerN2/EMMd2jURqtjzc02SPeEG2xD2f7PEPFpvKGHAv+oELkLIVemKtDm8xGZ4ReTHirU72sBia34MjKNx6nlorIiRyOn/qtSL8VnU4aOt51AJSiYotoJzXbQEBvcrg/InjYsoml+rvFpf3m8RtOMmWk3j0PDrIFJ2WnkcHqejxmto/lXy5ZKkXq7XwQuiBqQ+K0456HhjuLMdes2TLxV0+iksXnL777rur9c/0Tjcm2Rj3rAcu2lJHExK8MfKxL1QYior4HT8s+d3RagVojN6b7LGhpHuVdGhJlm4x5aCcTosbemLZyN+xVUKa7EGA4zYD941/XBImQJiwXhOPnkcH8eh5dJApOg297+ccDN9b6y0Bo56Y/cSn4NMERwxB6IFjeVVbVv9atoY9z2LrGMa9V5flJ89kj8+RTmuyh4u7EI49jkyr79jiGJXEz468yDO7xZRgfh/6IQxDW+N4jHMzmxPtxmSPCxiWfOADH3ipWprqt5ggMWi1Sni8DuRn9PtU/ba+xfTd+uFG/UdVXulbTJ8q+RLpcQGB6Z04pwjpWCVDragnHZyGVHWA01ZXR6DIECipVEchHVvs+/DGxsZbjx8//i7Ozwfnfvlkj5sV69+lladH9PTAjRim82npV6dSUvl755ECCdw7B062WtytLstnrckeIcaq75+nuvfW6NPRtMspfog9JrdOf04ynOwRuPN7++23P12D3Nu1yEhqadol3IlN0Q+9ViRmPah9iykcEC09PbFW2T/qidEptSJDcJ9YTm59iylA+79HwsEUJ3sIoSeIx1ctj/3owS9uGgEHTrGFftw0AuX0yhNm4y60ejHriblP/HTstGyxL7NVQ+COXs8P6MRjrCE/B276AVst7hbDuPpuCfV02BMH7izQE+tnNNkDOLkHW1mZS/eJJWG7cY++Gt0nBuxDp+eHEoYkRpM9gFWk+DRIfospJbGRiAfdJBFnbL1di8UktkCRxPqhApaSOOe+5eB7uA+CUcTU4KsT2BJ3oZcESzO2FpvKGPihhsTd44cO9+2KISjO2KIs9OLqaLIH2EIMR0lc8EMpibsJXHM0/xiSN3bdRWCYIQxPjLz3ve8tDpkgaCfiGnYwzIHkEOGgOWChOvTFcQxhWJZK7WJD4s48Wv1Uy+sNv4T0Yrged7uY0ho6OoZfiTs+lS+K5WHLwR1boaK1hqEqIy6Vb8OAQgxLwA9hCN16gsj84OA+awwdw97wXTFiGLeNMGMMOf0M76brcOfOTPd2WimJQ/D5x5YDCazdh6sFDGQHDdFaMELwOeBjx451z5/iphIS904ShIagV5HEK5TXcmBuq+YHfMWXIzM/lICtNeNesYXf17Dl4B783oghQ0a4k8WtGVv5uV83hiRBK4Ethi3u3hha/WvYoqfrzUNwcQfGvZPAiXvNlk479544cSJ0fhXuHHNoXbHVqn9wj8sJkAhdd2E4lM/YuomAUDnDngVoffLh9BPpWbGl5eIwQAj7KTOzNZqxxT50KFOrZms4YysNHVtDuV0EhEZY6M3YCn73xrDld2KXxbCGVv0zhJEIeoP6N0SypeUhdxtO/wAXZCu20nBaSRfuEw/q3xA9P4ThNI2S7Hlez8NbVxhxdsvLFVIrUnmciyR+k7Y/TgU8Ry3J7QMdnGWfNr1D57Zfdvz4cb7EThlDWwASpRaQJOZRxPRpU4gWWsD0UgDJZTFY9igai3wBn6voqXw5j2UczEP41RZXeuigi1qJe67TssWnPENAo86mbUllM9zZhM/4XCaxAGn0cNttt33+qVOn+LQpDaa9FMAQ6sMcPTAJ4hhCB1ssVOpfAInkPZVo1GWS+FO0/Ycf85jH/POv/uqvfqjAnSQOnzaVS79avuSzpDUkP+g4ucZQ4s5kj/Aoon5fJXs/puVwdToDSfxb2v9+lflyxeaWxeYRQgzxA36P2872Yo3Mn/p6ntq3mEAoj+QstFp5TxzuE8cWcIjUE1NJsJVxPyThogXODAJvk3z7UDx6Hh1kik5Lz6ODNPR44iskLr7EVywLtRlbaeTTqA+tGBr4X1cP7Kh/3h44jR4attK3mNCN24awGVsfVUK1Xs/j8YNdsJ3yep50dXqA5Acrjz+QCE5ptYBCIniy8cSLwC9EqjpWXqv1BnJeMNY4n0nAVsad1ukPJHdIGMJw35oh/m8rsNzfLolHb6qtrZb321Fns7ZYZzu+SOfm9GKsV8AtsHDud+utt9bOSVOdacSQ2KEXymvEMNnqnQM7rgUk7q26rO2W3KePHDlSq3/2woXWyMfrBxDyR7EJKyWocwy2Gkh+yMsLkz3iyTOOGZFQoRwzN7+/UN07788qTvbgFtOdd975NdKvTvbAVvYoWrE8gckeYTit31fKf/9msXkZ2peG07JbmuxBb/x4OSace6jhqZV3wcbGxpps8CjkaZ0moDPytHQIRnCydLBVjIb0ePCDCoCtYmXLyjvTsLUn2trj5F6yBedjhw8f/vOXvexlH1fl36tKi47xWprsIXkn9aE1hIaPI4Zp2NuyRU8Cp1b9E9LQccB9CWarM/wPkK9akz0CVN+bkz2mcI+NIZM9eKvraLIHtqSzdvvttz9DsQ7v2JIsTfYwvzNkH/lBLUnpxN8Quu64TMBH94kBBfCWRfWcr2ZVQg+wNNkDHcqKw5fqsGP//v28nscz2eP1Epxfm+yxiwh64Irf03Bajd3T0MviPYLFsFNnUnn8xk0jUHHR8dS/yL1rK3Iv2oJ7dmy1yR6BO79K4upkD2w5uA9PXYqTPYx7LJfOkf1Lw+le7vD1fRKBfxwinKzTAsb1YotL4bQQ6hEYdVRbyawVobyiLSDCwan6DetDYCsu0gPFxRFcwbfK1gpGz4EGs5VVlBGmVlyrUCV4uAuBOxeVWn5XY8j/w616KyaPYex5is6Hu92Sqg17sZX1Yt361+qB8YPZ6o0eGIbapvi7BOPOskad2Br5Fe4a0m/0uGML7q1Tl9wP0VdFW73coVLWSNjzn1USOJCD5g0Fd999d/GAcKD3WVJ0BV5qhw62RvZe+9rXhm3S4eVjVe6ZA4v8jXsvGJ7Gx2xlQ7kRCBh+YLmTBK7ngT3cSYIshrUEjksX2Ee9RramxNC4yw/ojeBNYKt/c8Yw+r0IbBn3uGkEi2EsD1tV7lb/ajHU6efwO19FeGJY6llcSUBgzYG1gAFvElCeKlT+eh56GN4N/JmSz+McRfL5GvYxzHi+hHOMEX+PA+dMgrwi1XoCC37PD6tOAvkT/5HFTPYo6gjuhszDfVBxN50E3gSeEsPIveaH9HIKlVe1ZdyxVeOu0841XkaQvZ6nyJ0/GfeiLbjHxbOgIjFMw+FxkyGf7BG+xYSEPQuQdPlkj/B6HjmxNdwLJAZDR24x3SrBDp9y+ZCS+74o92sd4TyYc2Z0WA8w7sUDy0ADFBeb8OjNpQNWaYv9SmLX63k2EcMRqE8eW436l8A+dAb1b4jAHT0tD22NXs9TsJUme8hP4fU8Xu4VP+STPV4dX0YwRD7ZI7yep+UH83tOKLValRZwabLHt3zLt/zm4JI6B1ia7AGJKT3P5ZLvk4SLWiqPnwBVvLi0BJL4MrOlA7NL739Pwtv9CU4oP9qCj0wFW0WD0kMRQa+mw4/bVlTatK2oE/50yuPHbPHLFyDeIPm/JQEE/4Mf/OCe22677QU69ft5bSpN9gj1gYVOzzPX6CEkSaP+BcA96zWL5QmpLmf1IYdN9vihxzzmMd/47Gc/+1ihvNJkD5xb5G5+aHDngi02uOvyatnjyyatyR6vVGx+abF5jNwPcVO3FQH5ZI/PiNtykMT5ZI/m63msPH7jphyXSOgZblJZz5bwOiAmmHD1DuFTGHx8jSCGlwIMuNMQ/IQEh3OQPEOaxLaVxKPn0UGm6LT0PDpIRQ8fcCslvJgNH+Gr2MLXJnukXqzVE3RiaPBczPPUv8Q92qrBwz29nufa8vRHYJM9uq/n8XCf8/U85gfze3AqK51WBLxAxn9Uv61vMb1UOtYTf3HlW0yTWlMWKq13uk8s/sNvMQFe/s29tg1xYj20ooCVEqRnQa/qeXQEqS0KlQqJVISzPOxsljvbHpAQt7cPekSSN79PbD1xrxcLcMYwTYZo9cCe+jfgXrPl4i5fhZ5Y0voW0/OkF3piofYtpsS944fwZo8T/W8xfYZ63/BSAOkVv8VU9Dskeq0I0BB6Va/nAaE1RbRslXOI1ut5liCHMJwNSdVCzw7w6MxZ3ly22I/fo0/N3qgnZj96LXszxjDVv5atCvcRjHuvLqvOPKxezxO+9t87B4mLqkulxm+Bq666Khmu6XGwntZbRMMBMnVOP7XWNB1ErcUVwkFzdTVTHyJUNvTiehEWMGbWxE0lhMpGea997WtrBXL1Ndg6cuRIlZSQbHm4t2wRQ3ox/N7qxSzW+q32YhZD6swWYxi4W/1r2HJxx5b1wI66XK2jgsU3+LOiF2Lo4S4/hAQ/fvx4k3usV8OvhCbA3XInjqKSYm8IHf6RBXXztUQJBxSXax8uC8F3DDsIfhgytebRxl94td4eiAPdtyDwQ2vomHGv+QpbobzWs6TyQ/f2iZD84OXei2HGvWhLvUCIc4d7iqGHeyuGXu4WwxZ3s9VqfIghD+Gz3EpguMdl6nKxvAkxDNzjerFQ487UzJOVZxLyBC7VP84zug6M68UDggQzYQ4ePHiKKVtx+xKcSRDOnyz4rSSIizUng+TArSZBwYFNW3MmQezFNs1d8CQBo5rwgx0Pd9lyNcIVWyEJHNwnx7CVwMSQ+7JxU81W6qljpzUa3VgCT4xhEfjUuFcaO+Cpf0VAwsb6diDpPrEknBProMNQTrmEDsOn/D5xOCfGgZmtGnBgOH+KtorABrbi6vClAIbAnXLj+o6Ace/wCtw7fkjD8c55cCmGQ3yBKg9P+3x0Y2MjfJ+4BIthh/ukGM7hB/Y7/FCqf+k+sST4p8A93SeWhHPiLXLP506/gvvE6Ay4p/vEknBOnHGv+qF08Bx0aEXo4rWO0SHC+ROtiH5rj3yFQrNWpNp662BCi9R4fGzpHCRuKyFwh9Ov/uqvcpuKq+jPlnCLKomGjp8pea7kOVrndtnS/ijc2kKHGWOsF/WiTs0WZT/14osvvoyr572eR34IPU/HD2koV+t5hOAH/N6Ioc3YCjhx4kQtht250EKIIQveGDZspfrXsmV1hljXenwJtqrD0IhU/xg9tOqyg7snhszYWpe/w3egGzEMsen0wMnvOdI3VQstYD5j6yaSeNCKDHvi8FKATisCidACNlrTEHx0KDNuA8OeONjCTvxY1f8i+RPJH0p4njaIHPuHJvn2oUzRaeix74+YLDDgPkTyQ6vnqfhhiFYMDUyKUQ53Z2yFb093errAq1Ne6M0dtkJ5neMLHUivPKFly3ri8Hoeqzdhz1mkntjuE3d4hRg2eC3N2Ipvhx0in7HVez1PqjNxfTTsLf3jZr/FVCSB0ygvkmgmMHpaHjpwKYkz7uCg5F9KcEgSuCPD7UPx6E3U+WZJER4/EEj2V/yQ4IhhshUrJFP7LIm5b/pIwe/F2Ni3mEp+d0/2GMSw6PfBZA/uE59NvrPIJ3tw+68IYpjXmVAgJDREsAeqa8NekpipYkz2YPYU723KgcE02UPnWF9y/PhxesIRrDyGHa2LFqqMYehYmQC+NNmDDYNhBy0f53m854rjDJU/Pi5ZKo8W0io/1+hKwxx0CDi2eOPDkFOC1NBZkw4TKRiZ8KD3Ejx+IGB8ayr6AZ3i8Iuk7J26YItbViyrPBpAkph3bIHfkNAgKoThSleo2PofyhvxWqgEHZtSWuRlthYqaQbZEjy2oo7ZapXHj9kqlceQmVElp1s/LJ2v1y++GCKf7PGV+n1L2DqAsy6H1/NoCP1zstWa7PGsU6dO/aYWq5M9tD2P4aI8T+sN1L1zEWTpwtYATPZ4pXRoSaqTPTytltDqgQ1pskfsVarcdyLM7z0/sD/6ISRVCZ4Y4veCLR58t0c6g8T4Bcm35+LRQabotPQ8OohHb6DzvZKQEEOovncne3hjyJ/eZA+SU0ncnOxhMYzlpfqQv56n2hNgmCRWK1H9FtO111574P3vfz+v53mjpPh6HmerlXrg1kUEcep9iwmkCyATerFiTw33VT9OmHGHU9EPxr1lq8H9Ysk3Sa5hhUDzI5FLy7fvPDog06vOHZhgiwrb0+naynRQ4sGQ75f8PusZgg3Vd9e3mDwxjBe5qq/nwRYPpLRez9OsfzGrw4EVEHqCuMyE7LskkF3qiSmg93oedLDV61WsB+bA4qYi5BTXt5hieVVblIPOJnqxEYx7tFUEttDp+d1sabnLvWerw513kV128ODBKy+66KLHHDp06NFa5wESGsYlYR860j2s9aKO5HL2Z7ZKOrktToVqtq7AVizvisG+JNhwcL8i446tT5CMfGaxoyfWT/H1PJuIIchvMaWe2GIY6/voFhNQO9KLYRXhHyNRkK5OS1ISUzg69MRaHd0nBpYE0VbtoF0JjC1+SWL9pAtbA+QOrB60OdACV4I5sMd9EIwiBsGvIXG3Yy3Bw11wcecYsdcqD3h02I8eNuOmEbzlmS0tzmmriqzOgNF9YoAdj98LMRwlccFWKYldMSwh/0cjMUpiIxqdg+4oiY1oj8TAVhHsQyeuMpwuJXHgjl7mwBGsvMyBJcza+KDTseXibn7ocC/FcASPH7wxNO6eGHq4o3cOYzhKYuMebdVQ476UxHR66A24j5LYw73kIEikm99aL577QdDO/WrnrcDxOpbgwN45MA60c5C4qWQrcZd+cx5t77xVwFYIqLjDadPc8ZXjHDjNo8VWbwqhg3s3hsa9Y8vFHVvG3RNDD/cZYkgCWwyb3HsxBINz4BIS91YMuXNx/Pjxteuuu64Zw/jbrX9xMQEStRYw9cR7fa/n4US+d84dSAxawBHgkrWAZms07dK4t2yxD53SwWdIftDySnoxjx+Me7RVQyuGCU4/PJJHIvlkj/AFiC36IfTEOg2c7fU8Vl5cDUgOrJAISQwJLoUXjHOAlsT5ZI/NODChEfylJO44MMCCH23V4KpIHu7C7nBccHLflkZ4CzHMk5g7LWArMeT1PJbEfIy/VAdDEksnzdiqoeQHz0FP/RbTDWFrGam8VsCEnOjQgSmJ7YC2EDBDqmwNW+miRYf7pKRr2RoErGmrw93VYAiJe+MC1RwxNHjq36pjmM/Yan2LycV9//7918vWLK/nKXF3kRBeiPFIIlzYGgBSr4gkfodpZovNI3iTIAQfblouBT8lMRVtzquhLVseHWG28ubkbrY63EOjMUd5wo70g5M7M7aakz0Eb0MWJnvIVnWyB1DneFPMn/zq9BJKDVkg0buIAOjeT58+zTS14mQPYZ9arJdpPy9le4d+R5M9AIU7LiLQmvYupjBj65/q92NXXnnl1ffccw86o6BcfvnlaydPnhT99dP33Xdf9aLFpZdeulfHt0fOPil++GFk67LLLls/derUWrQFr1Il2HPJJZfslS/OYKvGy8pT4E596EMfglfJ1ppsrWPr/vvvr10AcXEf+KHLHV49P3S4J1uR+6b9cA5ieEz7/65s8SlSJquU3rFF7nQv5gk0FqfVqT3x+PHjP6v10WQPgfxb+8Vf/MVnittt0h9N9gCWO8OLeWHGViuBaWEgqINqztjiySFV2K8iiSXFGVtTE7j1OJe2M2WOJ5VOqrwfZBPbB5Da4nFLHMkPy0NEHf5fauUX22FIP+hVdUBmq/rSAk95AkXuRO4eW6gF7sL56Af2MZL8e9JjZhef2H2zxMBoMlwd73R+jCbXjxw5wtRW7IXvE0vyJA6NwaFDh87cfvvtT1NjFeZOS5aSmDzk6ngxdxrDEw44DGkXq+P7xBHhkS+SWK3uK7XO/qXJHsLkIbScR/klhO1y9LdLcALlFUX7g5T2mZhOS8+jg3j0PDrIFJ1V2fLoIB49jw4yRael59FBCnp/JvlciSHV5c7QPr8WAEaTPSRpOK5lMLpPLHRzp5YoIHzrlRYidt0YDU8xSawnDvfh0KFVUotDi0VvnffEodXiFT7cF2v1wGaLB9mjE4cItnjAXkOPT1erRaPBtMEh9O+h1a3O2xVMBwVa5rBxCKlYoLZqy6MDPHoeHWDf2J3LD73yPLY8OsD0zlUMWUbeJuEd53ykINVl7r+3emDLnawuk8Th5fESeuKfkK3TA1skMU8H5j0xz5A3cweSI1jXHcfe/CMkRklM65Cdt9Li2BcgUhLTisQEx06RBC2aCDa/LYtTeQSLc5DMFvNf84erz4gPPAjaaemWyjtz0UUX8TgbemeiTjGy0daeqFMKGLY456GFrNk6c/DgwT06v+rampk7nHq2utwleyb6gfLQGdmK3ENv0uDu9cN2cM9tkRuM9LjNdFz7S/VvhErugJTEGrG+6vDhwz95ww03HJcOnIzXKInJsVheyaflkTQkKl13Gk7v3bv3WSSnWoj8yjHLdp+YYUO4Oh2HCkNbCZBAB3taLTYqOJCyoq0x6QzoInG1CI8O8OrMWd5OtRUXq5i7vDltxcUqerbY56l/ljuxLg+xNNkjvn1miDSc5hoUGwp5mGC5E1cXoPAGiZDEkFASh9fzaD0/8KUk3rdv3w3RMVUSdtCDxmAJXgd2uAfYQbfKE7rnIMDDXdhM8Iu24L5qP2Tl7caww30QwxLyyR487Ye9IUISS6c72WPghwUcDtzs63mK2EYHFm1NTYJW8FedBFO5N2J4PidB8kMsr2Zru7h3bUXuRVtzvp6nGEOPAwW+xdSb7PHySILJHmHudAnbkQQtB57LJNDylirSTEO5gEESdLljM24bwcNd2Az3h10MASNT5UVvssezYv5UJ3sUuRuJVsAAY/RovJrEnLBHEsNbTAlGouVkIXfgliquJUHPyVZeyw8DB9aQuKMft43g4S64uHtiCJcpfmhx98YwK2/HxbDH3eMHbwz5E0em1STmGJXEU17Pc9YPPRJ2EPFEu5rEPJXBWD+SKCax96Ah2XOgOblja1LF9QS/Y8vFfYofYnldP8zAfac9gGBwcff4wbhHWzXMHsO4zMh0eJ84ABuIwHvLi0ncjGHPgRkJJmQXk5gDipM9eDqjmMQDB+4mgYM7elp+JCfBOWuEPX7ocM/rHwhXpyVLSWzco6/ChS3JUhJ7618JQxLh6rRkKYkhgU7v9TweEuzfBgduKQm83M2Wh3u0VYMrCTzchUfMSKRl61zVP/QyP4ySuGCrlMSuGJZQcuAoic2B8aDRHSWx14EDW0XYQUdbNewmwQIPtyQYwcNdmC2Gxj3aqqHGfSmJ53w9TwkpYJxsx21gKYntgLKDpqBREqMTiW6p4noDZtwbtlxXX4U8YF3unuB7/NDh7qpsQi2GOVzcBTd39M7nGLa4D2JYQ4t7SmJOOzn9LOhYEvNW2fA8sYd7XE5okUhJzH1iDmbgwGESP9GuKmp5SxVp4MCardTitoLhDH7yg5ZXwd1VkYx7tFWDKwk83IXZkmBO7mbrPIthSGIu/CqJXxNPP4dIPbHN2PI0wnE9oJcEIYkhwaXwgvE8ibvfYhJW6cCAqRVprl4MXS2vlPvDMAkCpnLfQSORfMYWD+7g1yFCEksnJXEFxRgGEp2Dnvp6nvBVxApcARNyB9aQbDW4zxp8s9XhHmzNEPyUBB3unhhO8gO6niSYK4Zzcu/Y8sZwtsaHfCAvyB+tkielJH4m+yWMeLuv58nLCz0wG1sOFPLX83zyYtMScOxXRRK/eeGFF1692LyLXeziwIED1ygveEKJ/OEDbaOGaGNj49Ni/qQLWwPUe2AWGs9Hkth8m+ZFpxev5yE5v13yvrgPQGyvCv8s/X6p5M+l9zP6/aBkiayGErQewabslcoDfMkwtDJRB/sjeGxJhf1TbKFW0zFbLe5eW13uwnb44ZHO3WvL6m3LVpe7gB+UDmceLfkyrfMoL6/puVWSXg+ELe3nyb9v1m/p9TwkcPm5/JjEkCkhZH5c5qkKjHNAPGd5zETJixyX2POTI9G+JKX9Jh49jw4yRael59FBPHoeHWSKzqpseXQQj55HB5mi09Lz6CAePY8O0tAhT4a5wyt87E015Fl6AEJJnYbsWh314Gvxgf5SKxIynwf643r+gPPHJLwF8MMqnF/kr1UY74DmnUQ5YQ5EPwFSCa9WKIpHb6otj45QtXUuuQvF/chEWx4dUNXbDPea3lRbHh2hautccheG+x6QkCfD3Plr/ZJXwHRB+D51fBkBuXq2B45IJQ2QEjh7iwFjdHuzB2/wePfevXutFz998uRJdLBHa5EuYmgYzjbWz5wS+GX7ENKjhcEWasWhiVTYj97paKuEPdEW5bZsWXkeW8GQfubgjh8IRhHSs4soHltzcq/aysrrxXB27gJqm+YurDqGvfrH/x1X7rAfPcsdeHGtiRfopeE0PXDvbSIlFE+ehXyyx6exYRe72MWsIK/Ir3R1ujaENpCjo50kMD1w4dWY3DJinH6JWpGffs5znvOXV1xxxfrRo0eLLZsQxvG8C1j2WC/qxYaC8f6eu+66q6jDpXSd0O+NttAp6sH94MGDNEDYKram2JKNjWuuuWatxd1sebi3bGmYtOeWW24xP1S5D/xQ5Y4fHvvYxzb9btw1DLtALfimuQt5DL3cizrnIoZT6t8cMZyB+7USXjb5EXXmv6Jy/zjGsNgDw533ecXVBSAhArX7cEuTPSCz2FxE6s21XNWjHHTQjZtGwIEEA9EqQ5AiOtwD4IxOtFVD4t46Rg93wcXdbPW4T/FDi7v5YQL3HRfDHnePH85xDEvIJ3u4Xs+zxN3hwM+R8T+LSfyZcVsJ4aB7DrTyOg6cVHE9we/YcnHfRPC7fpiB+459AMHD3eMH4x5t1TBnDFdd/+wzLrzr+vMWm8YocveQ2NjYeIqM/yGFaPWLJCUiu0mwQPKDlreUBF7uHj8Y92irhvM5Cc5Z/WvZcnLnVvFLYhL/kdafvti8jCJ3jwPBxRdffJmM88J4kvh7JKMJ3ObAlq0d6sCVJ4GHu7CbBII3hsbdE0MPd/RWFcPDhw8fVH79q9hJ8hqfy8KODIP6d9ZWj4Q5MK7+lIRC+LLDlWww2AGdjw70cHdWpHOWBDNw3x2OL7BdMaxyx9aBAwcepwT+U62SXz8XdmRoxrB10MKQKOP0v5BQ0NdJwv96DnpqwBq20kULD/eOA1PAWrYGAWva6nB3VTZhUoMxIYZdW6uK4RTuXj+0uA9iWMOc9c8VQ2xdf/31+zWU/mdaJ6/+UvIidhoG3Gu2iqg5kE9RcPmc2SU3c+UR460DcpJIveZOSgIn921JAnwbtw2x8iSYyn1VSeDxw06NIbwoa319/flaJ59I4l9gZwYP9yJaDvxEyX+XcAL+fhF4QeUB54Cd6kArr1ORdpNA2I4YernPFcM5uUdbNXhiGMB5sPInn0T1+5K/JTG46l/8XYLHgbxI/g84CZcw9/ObJJ8ueRQ7d7GLXdTBReK9e/c+Q0Pob9Uq+UMCc0U6H0aHPPQ0PsOdZP76he0PfNO6nFYLwpfUv0GJ/tmsS/5E8v/GX4jlj6JV53xGHXjwOBd6I8JSYdsUW1ILj4aVbHXLE4bc8cOmbEmFbVvhThBDT5PZanFv2UrIdHp+4P9PRZ0inOWxbdXc0TO/n8sYJkjlEuUMb715nn6ZBYnOr0veIPkVCXDloRI4PBiRFxI2er4PzDON73znO3ls6gmSL5cwz/OpknCgQP8ffkU0/JYwlw7YybbOZ+5gq7bOZ+4AvTnLA9Ijye+Q/GfJv5PwfD4ofdt4CHrgMKTnPQDBKmP3W265JSRw6/vAPBIVEzi0zos9oSX5FAnD6Sep0L+h3/Dh78oBMQS3ZJdK86Cx3dLx2EIHO3PZmsK9pdSzxdMuvJfpKfp9QPuP6JfH1ex/lhDL4xOdGCqW6dEBUmMf335+slT5BCeVjdsfdi441Q8tHa/fA3eWZ7A1hXtLaSp3PnLOBawPSBg+/zfJuyXhHzeRh+ic3sM/TvzAN5WLJB6B8fs73vGOKzSS2HjooYcsyZegIcKa9vMWkNNRp3Tkew4cOMAQck/UKZaHjritt2ypPCptqHwdW7xPii/rn3JwPyMd/FDl3rPl4E6wv1b7X6/f35Uu508kMhc5lrBv3z58RWU6ffz4cY5vxEs67EfvTNQp+kF6+OrkqVOnbpD8b1qmcf5GyY9KQuM8IYYev5+rGHbrX8+Wh7uQ+4E683HJhyVLNgd5iN4IKquch72rX/wj+9HTqrU6I3CFED3046YievsNHr25dMBOtKXzp29WBaFicNth1e8sY0T1Vgnlk8QJq/bDqssDc3Lv6Xmu/pPktTxcU8t0Jr7do9iKeHpgSPBIFMMAVbq4dRlG4sYbb6TBqDYGHAhEX/KSl1R1sIUO3LRac1BofGJ51VsQ5kCGKFptOtDLPdoqwsn9gssuu+xiBf9qCas8S8fFwiUYd7hptekH9LTcbITRiRUJ0FvwjjRAQocv22Or53dPDK28h3EMgx8oTznR9AO5Qx62RsIMs1t56Al+14Ex+E0HRltdB0ZbRZgDsafVpgO93Fu2cKCH+8APRXi580dDsGsV/J/XIkFlWLsED3dhM9xzW/9CQvlvViX7G/iiZ2vOGGbcVxLDObmbLfjFbSPMGcMSZqu45sAO0eTA1kEPHFhDciD6cdsIHu6Ci7vZ6nH3+oHfjY2NG/XzXyQkEV+bTDA/TOC+WT/wihhGV7eJj01CmCWGPe5mawfHsAYX903EsMq9hPCPPRJGtEPCXXF7DjQnd2y5uG8i+F0/9ILv4J7moMfVZ0q4504S8xrggCnc0dtiDF8sOaEkfh8vglhsKsPjh0EMa5gzhrPVP2cME3ePHzrc3fUvLibM6cCcxCocuC1P4Wh5K0ng5l7wAw+b8GZEzofDi8SNe7RVw5wxfL4S+G4JPKoPqRe4jzA1CWauf+cqhiNM4Y5eyw9WXlwNSP84F4md6sBoq4ZJDuz4YSs9wT+Q0Au/R0Kv3L2TILi4O2N4gXrfpymB36lFeMBnBI8fvDE07p4YdrjvlBguwbhHWzVsPoZTSHQOekc60FmR5kyCYCuW1/VDgTsf3SJ5fmPfvn1PZkPPD8Z9jhjyZ//+/dcriZkKCA/4LMG4d2ztyEbY6YfzZjg+a9IZ0YYt15U7IQ/YnAdds5UC5vFDh/tWA8ZTYd8l4aLSz1949rtWXVtzxRA7l1566SVa/7cSkhg+9rSay+/CpBi2uA9iWMOc9W+7km7+GM7pQGwhHhIPGweOkbhzZT5uG6LH/dGSkDxK4h/ng9Rhaxnbwj2ug++TkMTwgdduDBdwcRe2n3uPxMPBgehqeaXcG7Y8PQEPlvyaEpgk/o7FpiJcfpgSwwJ3e+PEr0ng1a0zwvmVBMuYK4Zgtvo3iOEydh247UmwBCf3v63kfQ9JrGVeg1SCi7uw1Rj+YwmzhI7w6U02zBHDKdzR1fL2JcFZzFn/ki0tr6L+FeH5xzCERm+Og8YW0mq9zVYrYMLs3KOtGiZx7/iBq8KfqQTmg1s8BJHuEWdwcZe4Km7HFl/9+IC4fLTzvnEQyvP6YdUxnLP+dWx5/DBnDIsIDzN4HIj0HIiOx4Ho9hzosJW49xyI9ByYlbcKP4R96+vrfNCdXpiXiP8dtmUIrXenPDBXDPl6/bvgw4sg4rYSJsXQy32GGLrrH7Ki+ueJIf/rimH8PQsI9v6Rgo2EVqsk7KC1XE2Cga2iDs4Y2CrCwx1bWXnVimS2tLglP3i5m624+hUSkph7tLxsIWBgq8u95QdnDHk08QYlMB/Ehg8fyR5hh8YwvIguK2/bY+jlntmaJYZxdQH+sdd1Q8KGClotGgfYQE+LzYrbs2UBi7aaB+3hjq0ed7PFb9w0goe7EALW4262Ynn7JbyzjKThdUePl8zuBwf3oHfo0KErtMijkPCB19IMoZ0aQ/P7qmPo4d6zZX6YwH0BI9oiMfWgWySMaM/WlIOO3Iu24O6x5eHu9UNWntcPgDdq/IiEpHmzJDyIP4X7XDHMOP2YBD7wgl/ANsawCIthLK9ma7vqX9dW5D5L/ev5YcR9igO9JFoO9Fak88aBY+St99SK9FjJL0lIGpIn8dLinEnQ5Z7FkNtc8PllCfxq3Ic4Z41wzw8e7mZLy1NjuARvD7xp7rsOXGDghyKmcsdm3DZCg/v1kt+VkDTfzYaJ3LcjhjwKyW0m3jcOv0nzuLW8s5NgjK3GMMes9Q9bsbyztnr/uI3nIDUkB6Ift43gOWjBxd1s9bhP8UOLu/mhwp3ndv9KcmJtbe0bwhZH8OfkXrDFI4m85eO+jY2NT2VDz+8ePxj3ni0Pd68f0Im2ajj/6l+HxFaDn2BEO7ZSqzWzA6u2PNwHwa/6wbh7/NDg/iwJM7U+qCQuXg02GPeOH1zcO37g/vAfSHrfpgZzxnC2+ueMYeK+xRiCSfWvZctb/0rISazCgbM+hZNxX4kDPX4w7tFWDS/inqzkj9fX13kxfxEe7sJcScCriP8rvMTpf4zbSpgzgVceQ+PuiaGHO3otP3i4C64YlnA+J8HKHejh7vTDhnrf18Qk5hu1n7zYvIwpFSmWtyU/XHLJJZeKz6/CS6ucHxf9T1k9P0zhjt5OiqFxj7ZqcHHfRAynJ3CPxDl2YM3Wdjmw64cWd2cCkyyfoESxD01zj3jpG9BgCveeH4x7z1b4s2cPt7vg9b2ScNsrh8cPgxjWMGcMV90IJ+4eP/T8nnFvxjAuJqSDbjjQdeVO8Dhw0lXASLjrwBZ3s7Uq7hb8Hnf0LrrooquULG/ROsnCmy6XMPBDDbPHMC7/sAReJPPlbIjYlgtBOymGA+5dWzP4IXHnwnLcNkQqL64HeILvarWE7Wq1urY83HsONO4tB3q4C4G7xw/wPnDgwOO0/lsSkuXfsNMwlXsrCczWhBgCXiDPbabfkfAeanDOYujlPlcM5+QebdWw6RhuC4lHkgMLyJOgyz2uXyfhS/EkcXqOmHIy7k1bHe5bSQLmc39Iwq0meLrOgYXzOYaBO7a0vCXugxjW4OFejOHDwoEtWwMH1mzthJEI75omgfn6wsvZ4OS+ihjyNfs7JfALF9wG3EvYiUmwLY1wy9a2x3CKA70H3eiBE4lWeUKwNcdBDxxYQ7Dl5T6DH2rcP0tCktwt+SI2eLmjt83ceVnf70m4zfR87K06hh3uOyWGQ7jrH3qb4s4/N0iEVgud3kGjg27roJ220iNYDVueXpP/DbZieV1bK+KeKtuAO3Z5iwZJzGcvnyMJgdPPlvzg5N6LIQ8+3MaV87W1tZdSmRabi5gzhm7uyDmOYQ7+N9mK6yXMEsPuP2qZfyySoGAjodWiDs4Y2CoCgui0DhpbWXk17smWFqu2BtyLtrzczVbkXkVma8jpQgnfXOIe8Tv37dvHV+SrMF4tXwH8EHWqvvLaEq//RBJrEZ725sslePwwiGGtvEfM88AdWy7uRfCPsbVtVlx0YgHVg2Z/tNU8aHTiQRfhDH6yxW/cNIKHuxAc2OM+Ex4l+bckieQ3Ypk7CuLFFXOSmDdfwnfbYH5fVQzNlqf+9WxtU/2r2ir9M/+4fu+9967deOONp97ylrcUP7AMQfskY+vTqCLp/jRq60PnHHTv846Ag+5xxxYfdJ7AHTu5LXqh75TwcnXW+VP9Ar9Dh/V90uNFdI+R/JXUuNU0io+nPBD1QkWTWtFXE23xlftP0S8vKbhHwlfuj0sWRhy2OjrvlXyz5Jgnhpuof8MYJmxH/Wt9LNxb/ywPe9zj4llAYq5WhP29VoRy0KFcrRZtUV5mq9oCGvdoqwgvd7Ol5RJ3nuT5K1VKes0gWi+KRwfx6Hl0EI+eRweZotPSc+jw5FZ4QmquGE6pfy1bam9yWyutf608NO5LRvjHVbcivdYUB/Ix53PRAjZ6gueoMv5H/V4q+XVxpGcaAttSCx+YpuMplQWo2BYoejsqwKiiYEg/ZqvoAxDLQxdbxTI9OgJFlspj2fw75B4Xl4COlYetodJhyfMk96+vr3/Rt37rt77t1ltvXVtBDF31T8h7c3SKvjdbvfpHb86yyoNTsy57R5Nx09lWpJX5/GPWitSQWhH047YRrBVBN24qIbSAnVYr2epx99jycI+vlL1PggO/UMLnTrh6m8ulvJ9KwlcTLhvsS/KoRz3qcnT4zbbTOCRh38GDB69EtI6tpf0m2JHO4fherKJOtIUOvIo6ksvMVuSV7xtxj+Wl7QPJ/bD0/xL8hv9IdJKYW2xVPJLqX8/WiLvnH41oh0QadszswKqtKQfdc6Bxb9kCVDYqnRZJ4pvDxmWEK6vRTrU8eMG/5SuQ2apCHVyovPzGTSOwz2PLeLVsObl7/HAzjSGNYutZZcpxxPCc1b+WLSf3SXm4VJ7nH70kzIGTSYyxYx2IPSUxiXufhCRmKJgjJBPl9SoSOq3yhGArHl+Vu9lqlcc+dFq+Ah7uZmsO7kwcsSTWavFD5pTniSH7PTHs1RnB1Rhgw2Frth7YuI9s9Uh4HTiFROegd6QDzQ9xlYkYlsR8fJvtvGr2gM6JDiFXX301933ZNhI+kIZO/FBaUUcSbB0+fPggy4N9SdjfswWXKbbm5H7ttddWy8OGkvgFJLHWa0k8e/2LtmrYrt58lvpXshVay9qJuEASBMONE/9AYu6LCNI/+brXvW7TFxGEYIuFOS8iyNYJbSKJ7cLW/ycJF7ZUGXEugW9dVDIdVIqcgNTQ4VYMOqu0NRt3icfWlVLhXJjTkxdJ3i4xzFb/BjHs1j9PXZ6z/rVsObkX4enFQiMwsdWq2rLyGrbCOVav1RImcW/ZgkuB+1Mk90pwZhDVyST59lw8OohHz6ODTNFp6Xl0EI9eRYeno8IH2yJmi6G3/pmtCXW5hsRdDdSWuAtdP9QKoOJuR6uFTtOW9Ks9MAfda7WExP2OO+44GSvKEC7uAgErjR4YPv8rySdJ8KGKCa4sdTy2Ya2hA9josdXTAUt6FaUptrabOwtMHrHPqM4ew3NR/174wheeqtgigbu3wIRa/csRnDlE6Hl0UK4nODqtiKsFNFutFtBarWirhsS91ZubLQ93bGm5xn0X82PVMXTVP8pBZ4X1L9nScpN7XE44Zw5s2Ro4sGYrDTtawZjbgTNxX3lD5uEuzJYEc3I3W4+EGHo60rge4PnHRKJFVAi25jjogQNrCLa83L3B9ziw4wc3d/RWxd1srTqGHe67MVxg0zEMvRg7ev+IXodEegSrYcvTa/K/+b3Urq0VcU+VrRd8s6XlLfnByX1SDL3cZ4ihmzuyg2LI/06qf+cshiwYCRTCxgEwaP+o1SoJCBoJrVZtZeVVK5LZ0mLV1oB70ZaXu9nqcc9sdbm3bHm4C5O4R71tj6GXexZDytv2GG5H/ZvDDx7uZqvHPbN1tjzrurXYPGj0tNo8aHQiiSIGDiyWB8wWv3HTCBx0j7sQDrrH3Wz1HDiXHzbBfUt+OBcxNO7nKIZFDLh3/TAz966tyH16DHskqv+YYRD8oi2IemzZQc/hwKy8qq3t4B5tFTFn8I37BD94Y1iE+cHLvRXDTXB/xMbQ0wjvOnCLDgQDPxQxlTs247YRPNyFzXDfMTHMyltJDOfkbrZWFcMSVp4E57MDzVbkXrS1mwQLnCcxLMJiGMur2XJxnzOGJUxyYDzoJonOQSdbsbyirYEDa+WliuRx4JzcW7acwZ+Vu9lCP24bwcNdmDWG6ERbXe4tP5wL7h5bHu7eGHq5x8WE8I8UMCH4NeQkakQnHXTPlnFv2ZrCHT0tdwPWsuXl7vGDcY+2apgzhrM3nB1b21X/dlwMPdzRa/nByourAekf5yKxUx0YbdUwyYEdP+wmgeCNoXH3xNDDHb2dFEPjHm3VMDGGz937/wPCPcvJFD51owAAAABJRU5ErkJggg==&quot;&gt;" style="text;whiteSpace=wrap;html=1;" parent="1" vertex="1">
          <mxGeometry x="170" y="30" width="20" height="20" as="geometry" />
        </mxCell>
        <mxCell id="BQ2twlo6tOlxEzceBM2V-8" value="" style="sketch=0;outlineConnect=0;fontColor=#232F3E;gradientColor=none;fillColor=#2E27AD;strokeColor=none;dashed=0;verticalLabelPosition=bottom;verticalAlign=top;align=center;html=1;fontSize=12;fontStyle=0;aspect=fixed;pointerEvents=1;shape=mxgraph.aws4.rds_instance_alt;" parent="1" vertex="1">
          <mxGeometry x="490" y="100" width="78" height="78" as="geometry" />
        </mxCell>
        <mxCell id="BQ2twlo6tOlxEzceBM2V-9" value="" style="endArrow=classic;html=1;rounded=0;" parent="1" edge="1">
          <mxGeometry width="50" height="50" relative="1" as="geometry">
            <mxPoint x="410" y="146" as="sourcePoint" />
            <mxPoint x="480" y="146" as="targetPoint" />
          </mxGeometry>
        </mxCell>
        <mxCell id="BQ2twlo6tOlxEzceBM2V-11" value="&lt;h1&gt;&lt;font style=&quot;font-size: 20px;&quot;&gt;Clinicaltrails.gov Web Portal Pipeline&lt;/font&gt;&lt;/h1&gt;" style="text;html=1;strokeColor=none;fillColor=none;spacing=5;spacingTop=-20;whiteSpace=wrap;overflow=hidden;rounded=0;fontSize=15;" parent="1" vertex="1">
          <mxGeometry y="-60" width="360" height="50" as="geometry" />
        </mxCell>
        <mxCell id="BQ2twlo6tOlxEzceBM2V-12" value="CDT Staff" style="text;html=1;strokeColor=none;fillColor=none;align=center;verticalAlign=middle;whiteSpace=wrap;rounded=0;fontSize=12;" parent="1" vertex="1">
          <mxGeometry x="30" y="40" width="90" height="30" as="geometry" />
        </mxCell>
        <mxCell id="BQ2twlo6tOlxEzceBM2V-13" value="CDT Local Web Portal" style="text;html=1;strokeColor=none;fillColor=none;align=center;verticalAlign=middle;whiteSpace=wrap;rounded=0;fontSize=12;" parent="1" vertex="1">
          <mxGeometry x="170" y="10" width="230" height="30" as="geometry" />
        </mxCell>
        <mxCell id="BQ2twlo6tOlxEzceBM2V-14" value="AWS Database" style="text;html=1;strokeColor=none;fillColor=none;align=center;verticalAlign=middle;whiteSpace=wrap;rounded=0;fontSize=12;" parent="1" vertex="1">
          <mxGeometry x="499" y="50" width="60" height="30" as="geometry" />
        </mxCell>
        <mxCell id="BQ2twlo6tOlxEzceBM2V-15" value="Data Processing&amp;nbsp; and Export to CT.gov" style="text;html=1;strokeColor=none;fillColor=none;align=center;verticalAlign=middle;whiteSpace=wrap;rounded=0;fontSize=12;" parent="1" vertex="1">
          <mxGeometry x="610" y="-10" width="140" height="30" as="geometry" />
        </mxCell>
        <mxCell id="BQ2twlo6tOlxEzceBM2V-17" value="Initial Data Entry Flow" style="text;html=1;strokeColor=none;fillColor=none;align=center;verticalAlign=middle;whiteSpace=wrap;rounded=0;fontSize=12;" parent="1" vertex="1">
          <mxGeometry x="610" y="-40" width="130" height="30" as="geometry" />
        </mxCell>
        <mxCell id="BQ2twlo6tOlxEzceBM2V-19" value="" style="endArrow=classic;startArrow=classic;html=1;rounded=0;fontSize=12;" parent="1" edge="1">
          <mxGeometry width="50" height="50" relative="1" as="geometry">
            <mxPoint x="542" y="-25.5" as="sourcePoint" />
            <mxPoint x="610" y="-25.5" as="targetPoint" />
            <Array as="points" />
          </mxGeometry>
        </mxCell>
        <mxCell id="BQ2twlo6tOlxEzceBM2V-21" value="" style="endArrow=classic;startArrow=classic;html=1;rounded=0;fontSize=12;fillColor=#0050ef;strokeColor=#001DBC;" parent="1" edge="1">
          <mxGeometry width="50" height="50" relative="1" as="geometry">
            <mxPoint x="540" as="sourcePoint" />
            <mxPoint x="610" as="targetPoint" />
          </mxGeometry>
        </mxCell>
        <mxCell id="uOmg23JM_gd_B6zL18bS-2" value="" style="endArrow=classic;html=1;rounded=0;fillColor=#0050ef;strokeColor=#001DBC;" edge="1" parent="1" source="BQ2twlo6tOlxEzceBM2V-8">
          <mxGeometry width="50" height="50" relative="1" as="geometry">
            <mxPoint x="440" y="140" as="sourcePoint" />
            <mxPoint x="420" y="139" as="targetPoint" />
          </mxGeometry>
        </mxCell>
        <mxCell id="uOmg23JM_gd_B6zL18bS-3" value="" style="endArrow=classic;html=1;rounded=0;fillColor=#0050ef;strokeColor=#001DBC;" edge="1" parent="1">
          <mxGeometry width="50" height="50" relative="1" as="geometry">
            <mxPoint x="170" y="130" as="sourcePoint" />
            <mxPoint x="110" y="130" as="targetPoint" />
          </mxGeometry>
        </mxCell>
        <mxCell id="uOmg23JM_gd_B6zL18bS-4" value="" style="endArrow=classic;html=1;rounded=0;exitX=0.5;exitY=1;exitDx=0;exitDy=0;exitPerimeter=0;entryX=0.5;entryY=0;entryDx=0;entryDy=0;entryPerimeter=0;fillColor=#0050ef;strokeColor=#001DBC;" edge="1" parent="1" source="BQ2twlo6tOlxEzceBM2V-1" target="uOmg23JM_gd_B6zL18bS-5">
          <mxGeometry width="50" height="50" relative="1" as="geometry">
            <mxPoint x="30" y="320" as="sourcePoint" />
            <mxPoint x="110" y="260" as="targetPoint" />
          </mxGeometry>
        </mxCell>
        <mxCell id="uOmg23JM_gd_B6zL18bS-5" value="" style="verticalLabelPosition=bottom;html=1;verticalAlign=top;align=center;strokeColor=none;fillColor=#00BEF2;shape=mxgraph.azure.website_generic;pointerEvents=1;" vertex="1" parent="1">
          <mxGeometry x="60" y="200" width="50" height="42.5" as="geometry" />
        </mxCell>
        <mxCell id="uOmg23JM_gd_B6zL18bS-8" value="Clinicaltrials.gov" style="text;html=1;strokeColor=none;fillColor=none;align=center;verticalAlign=middle;whiteSpace=wrap;rounded=0;" vertex="1" parent="1">
          <mxGeometry x="50" y="242.5" width="60" height="30" as="geometry" />
        </mxCell>
      </root>
    </mxGraphModel>
  </diagram>
</mxfile>
